<svg width="24" height="24" viewBox="0 0 24 24" fill="none" xmlns="http://www.w3.org/2000/svg">
<g clip-path="url(#clip0_66_161)">
<path fill-rule="evenodd" clip-rule="evenodd" d="M21.8438 12.6562C21.3832 10.9359 20.1352 9.53533 18.4791 8.88026C16.8231 8.2252 14.9546 8.39306 13.4419 9.33281L14.9784 3.19781C15.0566 2.88525 14.9264 2.55768 14.655 2.38406C12.9181 1.2873 10.7214 1.22457 8.92477 2.22043C7.12811 3.2163 6.01718 5.11236 6.0268 7.16654C6.03641 9.22072 7.16503 11.1063 8.97094 12.0853L2.88937 13.8225C2.57956 13.9107 2.36069 14.187 2.34562 14.5087C2.22671 17.1469 3.95904 19.5126 6.51 20.1956C6.98758 20.3239 7.47988 20.3891 7.97437 20.3897C9.49675 20.3857 10.9526 19.7654 12.0102 18.6704C13.0678 17.5754 13.637 16.0988 13.5881 14.5772L18.1331 18.9759C18.3649 19.2002 18.7141 19.2512 19.0003 19.1025C21.3431 17.887 22.5257 15.206 21.8438 12.6562ZM10.5 12C10.5 11.1716 11.1716 10.5 12 10.5C12.8284 10.5 13.5 11.1716 13.5 12C13.5 12.8284 12.8284 13.5 12 13.5C11.1716 13.5 10.5 12.8284 10.5 12ZM7.5 7.125C7.49952 5.7123 8.22201 4.39761 9.41481 3.64068C10.6076 2.88375 12.1048 2.78987 13.3828 3.39188L11.9784 9C10.884 9.00821 9.8808 9.61183 9.36094 10.575C8.19698 9.81382 7.4968 8.51575 7.5 7.125ZM10.0312 18.3347C8.8081 19.0414 7.30836 19.0731 6.05646 18.4186C4.80456 17.7642 3.97462 16.5146 3.85687 15.1069L9.41719 13.5188C9.95508 14.435 10.9375 14.9985 12 15H12.0853C12.0086 16.3874 11.2358 17.642 10.0312 18.3347ZM19.9847 16.1784C19.6812 16.7048 19.265 17.1575 18.7659 17.5041L14.6109 13.4831C15.1525 12.5318 15.1313 11.3607 14.5556 10.4297C16.1847 9.60729 18.1606 9.95307 19.4136 11.2798C20.6666 12.6066 20.8989 14.599 19.9847 16.1784Z" fill="#0F1217"/>
</g>
<defs>
<clipPath id="clip0_66_161">
<rect width="24" height="24" fill="white"/>
</clipPath>
</defs>
</svg>
