<svg width="14" height="19" viewBox="0 0 14 19" fill="none" xmlns="http://www.w3.org/2000/svg">
<path fill-rule="evenodd" clip-rule="evenodd" d="M12 0H1.5C0.671573 0 0 0.671573 0 1.5V18C0.000135422 18.2726 0.148147 18.5236 0.386587 18.6557C0.625028 18.7878 0.916355 18.7801 1.1475 18.6356L6.75 15.1341L12.3534 18.6356C12.5845 18.7796 12.8755 18.787 13.1136 18.655C13.3518 18.523 13.4997 18.2723 13.5 18V1.5C13.5 0.671573 12.8284 0 12 0ZM12 1.5V12.1472L7.14656 9.11438C6.90336 8.96237 6.59477 8.96237 6.35156 9.11438L1.5 12.1462V1.5H12ZM7.14656 13.6144C6.90336 13.4624 6.59477 13.4624 6.35156 13.6144L1.5 16.6472V13.9153L6.75 10.6341L12 13.9153V16.6472L7.14656 13.6144Z" fill="#7A6387"/>
</svg>
