<svg width="24" height="24" viewBox="0 0 24 24" fill="none" xmlns="http://www.w3.org/2000/svg">
<g clip-path="url(#clip0_66_191)">
<path fill-rule="evenodd" clip-rule="evenodd" d="M23.5631 10.5L17.2388 4.1325C13.7218 0.622607 8.02723 0.622607 4.51031 4.1325L4.50187 4.14094L3.21094 5.475C2.93276 5.77395 2.94487 6.2405 3.23817 6.52462C3.53148 6.80873 3.99818 6.80598 4.28813 6.51844L5.57531 5.18906C6.09318 4.6713 6.68415 4.23226 7.32937 3.88594L11.6888 8.25L2.68875 17.25C2.40737 17.5313 2.24929 17.9129 2.24929 18.3108C2.24929 18.7087 2.40737 19.0902 2.68875 19.3716L4.62844 21.3113C4.90975 21.5926 5.29133 21.7507 5.68922 21.7507C6.0871 21.7507 6.46869 21.5926 6.75 21.3113L15.75 12.3112L17.0944 13.6556L18.75 15.3094C19.0313 15.5908 19.4129 15.7488 19.8108 15.7488C20.2087 15.7488 20.5902 15.5908 20.8716 15.3094L23.5613 12.6197C24.1465 12.0346 24.1473 11.0861 23.5631 10.5ZM5.68875 20.25L3.75 18.3103L10.125 11.9353L12.0638 13.875L5.68875 20.25ZM15.2194 10.7175L13.125 12.8128L11.1853 10.875L13.2806 8.77969C13.4215 8.63901 13.5006 8.44812 13.5006 8.24906C13.5006 8.05001 13.4215 7.85911 13.2806 7.71844L8.8425 3.28125C11.4533 2.54594 14.2577 3.27761 16.1766 5.19469L20.3222 9.3675L17.625 12.0619L16.2806 10.7175C16.1399 10.5767 15.9491 10.4975 15.75 10.4975C15.5509 10.4975 15.3601 10.5767 15.2194 10.7175ZM19.8131 14.2481L18.6881 13.1231L21.375 10.4297L22.5 11.5547L19.8131 14.2481Z" fill="#0F1217"/>
</g>
<defs>
<clipPath id="clip0_66_191">
<rect width="24" height="24" fill="white"/>
</clipPath>
</defs>
</svg>
