<svg width="24" height="24" viewBox="0 0 24 24" fill="none" xmlns="http://www.w3.org/2000/svg">
<g clip-path="url(#clip0_66_176)">
<path fill-rule="evenodd" clip-rule="evenodd" d="M20.2303 11.0784C20.1726 10.8343 19.9967 10.6352 19.7616 10.5478L14.3606 8.52188L15.735 1.64719C15.7989 1.31904 15.638 0.988192 15.3403 0.835989C15.0426 0.683786 14.6802 0.746981 14.4516 0.990937L3.95156 12.2409C3.77834 12.4235 3.7082 12.6807 3.76478 12.9259C3.82136 13.1711 3.99713 13.3715 4.23281 13.4597L9.63562 15.4856L8.265 22.3528C8.20107 22.681 8.36205 23.0118 8.65971 23.164C8.95738 23.3162 9.31984 23.253 9.54844 23.0091L20.0484 11.7591C20.2185 11.5766 20.2866 11.3214 20.2303 11.0784ZM10.2534 20.0625L11.235 15.1519C11.3075 14.7922 11.1092 14.4328 10.7662 14.3025L5.8125 12.4416L13.7456 3.94219L12.765 8.85281C12.6925 9.21248 12.8908 9.57184 13.2338 9.70219L18.1838 11.5584L10.2534 20.0625Z" fill="#0F1217"/>
</g>
<defs>
<clipPath id="clip0_66_176">
<rect width="24" height="24" fill="white"/>
</clipPath>
</defs>
</svg>
