<svg width="18" height="18" viewBox="0 0 18 18" fill="none" xmlns="http://www.w3.org/2000/svg">
<g clip-path="url(#clip0_76_545)">
<path fill-rule="evenodd" clip-rule="evenodd" d="M9 4.5C7.4467 4.5 6.1875 5.7592 6.1875 7.3125C6.1875 8.8658 7.4467 10.125 9 10.125C10.5533 10.125 11.8125 8.8658 11.8125 7.3125C11.8125 5.7592 10.5533 4.5 9 4.5ZM9 9C8.06802 9 7.3125 8.24448 7.3125 7.3125C7.3125 6.38052 8.06802 5.625 9 5.625C9.93198 5.625 10.6875 6.38052 10.6875 7.3125C10.6875 8.24448 9.93198 9 9 9ZM9 1.125C5.58434 1.12887 2.81637 3.89684 2.8125 7.3125C2.8125 9.52031 3.83273 11.8603 5.76562 14.0801C6.63414 15.0831 7.61165 15.9864 8.68008 16.773C8.87383 16.9088 9.1318 16.9088 9.32555 16.773C10.392 15.986 11.3676 15.0828 12.2344 14.0801C14.1645 11.8603 15.1875 9.52031 15.1875 7.3125C15.1836 3.89684 12.4157 1.12887 9 1.125ZM9 15.6094C7.83773 14.6953 3.9375 11.3379 3.9375 7.3125C3.9375 4.51656 6.20406 2.25 9 2.25C11.7959 2.25 14.0625 4.51656 14.0625 7.3125C14.0625 11.3365 10.1623 14.6953 9 15.6094Z" fill="#171217"/>
</g>
<defs>
<clipPath id="clip0_76_545">
<rect width="18" height="18" fill="white"/>
</clipPath>
</defs>
</svg>
