<svg width="24" height="24" viewBox="0 0 24 24" fill="none" xmlns="http://www.w3.org/2000/svg">
<g clip-path="url(#clip0_66_199)">
<path fill-rule="evenodd" clip-rule="evenodd" d="M21.75 3C21.75 2.58579 21.4142 2.25 21 2.25C16.8675 2.25 12.6272 6.91031 10.2722 9.99656C8.56661 9.47421 6.71436 9.7918 5.28021 10.8525C3.84605 11.9132 2.99999 13.5912 3 15.375C3 18.27 1.16813 19.5684 1.08094 19.6284C0.807815 19.8129 0.687086 20.154 0.783384 20.4692C0.879682 20.7843 1.17044 20.9997 1.5 21H8.625C10.4088 21 12.0868 20.1539 13.1475 18.7198C14.2082 17.2856 14.5258 15.4334 14.0034 13.7278C17.0906 11.3728 21.75 7.1325 21.75 3ZM8.625 19.5H3.24656C3.87937 18.6009 4.5 17.2425 4.5 15.375C4.5 13.0968 6.34683 11.25 8.625 11.25C10.9032 11.25 12.75 13.0968 12.75 15.375C12.75 17.6532 10.9032 19.5 8.625 19.5ZM11.6644 10.6453C11.9856 10.2291 12.3009 9.83687 12.6103 9.46875C13.3676 9.98035 14.0196 10.6324 14.5312 11.3897C14.1625 11.6984 13.7703 12.0138 13.3547 12.3356C12.9176 11.6586 12.3414 11.0824 11.6644 10.6453ZM15.6675 10.3941C15.1013 9.59512 14.4039 8.89778 13.605 8.33156C16.5844 5.09437 18.8316 4.11281 20.1581 3.84C19.8909 5.1675 18.9047 7.41469 15.6675 10.3941Z" fill="#0F1217"/>
</g>
<defs>
<clipPath id="clip0_66_199">
<rect width="24" height="24" fill="white"/>
</clipPath>
</defs>
</svg>
