<svg width="24" height="24" viewBox="0 0 24 24" fill="none" xmlns="http://www.w3.org/2000/svg">
<g clip-path="url(#clip0_66_168)">
<path fill-rule="evenodd" clip-rule="evenodd" d="M11.25 6C11.25 6.41421 10.9142 6.75 10.5 6.75H9C8.58579 6.75 8.25 6.41421 8.25 6C8.25 5.58579 8.58579 5.25 9 5.25H10.5C10.9142 5.25 11.25 5.58579 11.25 6ZM16.155 18.4819L16.485 20.7881C16.5464 21.2186 16.418 21.6545 16.1331 21.9829C15.8482 22.3114 15.4348 22.5 15 22.5H9C8.5652 22.5 8.15179 22.3114 7.86688 21.9829C7.58196 21.6545 7.45358 21.2186 7.515 20.7881L7.845 18.4819C4.86956 16.9312 3.00251 13.8553 3 10.5C3 10.0858 3.33579 9.75 3.75 9.75H5.25V3.75C5.25 2.92157 5.92157 2.25 6.75 2.25H17.25C18.0784 2.25 18.75 2.92157 18.75 3.75V9.75H20.25C20.6642 9.75 21 10.0858 21 10.5C20.9975 13.8553 19.1304 16.9312 16.155 18.4819ZM6.75 9.75H17.25V3.75H6.75V9.75ZM14.7253 19.0781C12.952 19.6406 11.048 19.6406 9.27469 19.0781L9 21H15L14.7253 19.0781ZM19.4625 11.25H4.5375C4.92222 15.0828 8.14793 18.0009 12 18.0009C15.8521 18.0009 19.0778 15.0828 19.4625 11.25Z" fill="#0F1217"/>
</g>
<defs>
<clipPath id="clip0_66_168">
<rect width="24" height="24" fill="white"/>
</clipPath>
</defs>
</svg>
