<svg width="20" height="20" viewBox="0 0 20 20" fill="none" xmlns="http://www.w3.org/2000/svg">
<path fill-rule="evenodd" clip-rule="evenodd" d="M19.5088 4.46875C19.4164 4.2405 19.2179 4.07212 18.9776 4.01823C18.7374 3.96434 18.486 4.03181 18.305 4.19875L14.5269 7.68531L12.9116 7.33844L12.5647 5.72312L16.0513 1.945C16.2182 1.76401 16.2857 1.51261 16.2318 1.27235C16.1779 1.0321 16.0095 0.833599 15.7812 0.74125C13.7004 -0.100511 11.3372 0.147229 9.47608 1.40224C7.615 2.65724 6.49956 4.75531 6.5 7C6.49879 7.93345 6.69028 8.8571 7.0625 9.71313L1.41781 14.5938C1.40375 14.605 1.39062 14.6181 1.3775 14.6303C0.205793 15.802 0.205793 17.7017 1.3775 18.8734C2.54921 20.0451 4.44892 20.0451 5.62063 18.8734C5.63281 18.8612 5.64594 18.8472 5.65719 18.8341L10.5369 13.1875C12.6252 14.1042 15.0351 13.9044 16.944 12.6563C18.8528 11.4082 20.0023 9.28063 20 7C20.0015 6.13242 19.8346 5.2728 19.5088 4.46875ZM13.25 12.25C12.3623 12.2488 11.4892 12.023 10.7122 11.5938C10.4019 11.4223 10.014 11.4916 9.78219 11.7597L4.54156 17.8291C3.95182 18.3894 3.02295 18.3775 2.44774 17.8023C1.87254 17.227 1.86064 16.2982 2.42094 15.7084L8.48563 10.4688C8.75423 10.2368 8.82348 9.8483 8.65156 9.53781C7.67593 7.77323 7.7971 5.6058 8.96334 3.96096C10.1296 2.31611 12.1348 1.48452 14.1228 1.82125L11.1978 4.99094C11.0327 5.17009 10.9648 5.41832 11.0159 5.65656L11.5466 8.125C11.6086 8.41337 11.8338 8.63863 12.1222 8.70063L14.5925 9.23125C14.8307 9.28235 15.079 9.21453 15.2581 9.04937L18.4278 6.12438C18.6836 7.6481 18.2559 9.20717 17.2585 10.3871C16.2611 11.5671 14.795 12.2484 13.25 12.25Z" fill="#824F94"/>
</svg>
