<svg width="20" height="20" viewBox="0 0 20 20" fill="none" xmlns="http://www.w3.org/2000/svg">
<path fill-rule="evenodd" clip-rule="evenodd" d="M20 7C20.0023 9.28063 18.8528 11.4082 16.944 12.6563C15.0351 13.9044 12.6252 14.1042 10.5369 13.1875L5.65625 18.8331C5.645 18.8462 5.63188 18.8603 5.61969 18.8725C4.44798 20.0442 2.54827 20.0442 1.37656 18.8725C0.204856 17.7008 0.204856 15.8011 1.37656 14.6294C1.38969 14.6172 1.40281 14.6041 1.41687 14.5928L7.0625 9.71313C6.0306 7.35264 6.43081 4.61076 8.09438 2.64371C9.75795 0.676663 12.3953 -0.173199 14.8944 0.4525C15.1513 0.516891 15.3552 0.712009 15.4308 0.965837C15.5064 1.21966 15.4426 1.49456 15.2628 1.68906L11.75 5.5L12.2806 7.97031L14.75 8.5L18.5609 4.9825C18.7554 4.80273 19.0303 4.73887 19.2842 4.8145C19.538 4.89013 19.7331 5.09403 19.7975 5.35094C19.9321 5.89029 20.0001 6.44411 20 7Z" fill="#170D1C"/>
</svg>
