<svg width="20" height="22" viewBox="0 0 20 22" fill="none" xmlns="http://www.w3.org/2000/svg">
<path fill-rule="evenodd" clip-rule="evenodd" d="M10 6.5C7.51472 6.5 5.5 8.51472 5.5 11C5.5 13.4853 7.51472 15.5 10 15.5C12.4853 15.5 14.5 13.4853 14.5 11C14.4969 8.516 12.484 6.5031 10 6.5ZM10 14C8.34315 14 7 12.6569 7 11C7 9.34315 8.34315 8 10 8C11.6569 8 13 9.34315 13 11C13 12.6569 11.6569 14 10 14ZM18.97 5.20156L10.72 0.6875C10.2719 0.439919 9.72808 0.439919 9.28 0.6875L1.03 5.20344C0.550138 5.46599 0.251242 5.96894 0.25 6.51594V15.4822C0.251242 16.0292 0.550138 16.5321 1.03 16.7947L9.28 21.3106C9.72808 21.5582 10.2719 21.5582 10.72 21.3106L18.97 16.7947C19.4499 16.5321 19.7488 16.0292 19.75 15.4822V6.51687C19.7498 5.96887 19.4507 5.4646 18.97 5.20156ZM10 20L1.75 15.4831V6.51687L10 2L18.25 6.51594V15.4822L10 20Z" fill="#170D1C"/>
</svg>
